# xmcd
#
# Track frame offsets:
#	150
#	12910
#	29100
#	43135
#	59600
#	71745
#	85390
#	97272
#	112610
#	125985
#	138192
#	153250
#
# Disc length: 2197 seconds
#
# Revision: 0
# Processed by: cddbd v1.5.2PL0 Copyright (c) Steve Scherf et al.
# Submitted via: audiograbber 1.83.01
#
DISCID=ad08930c
DTITLE=Della Reese - The Classic Della
DYEAR=1962
DGENRE=Easy Listening
TTITLE0=The Story Of A Starry Night
TTITLE1=These Are The Things I Love
TTITLE2=If You Are But A Dream
TTITLE3=My Reverie
TTITLE4=Take My Heart
TTITLE5=Stranger In Paradise
TTITLE6=Gone
TTITLE7=Serenade
TTITLE8=Moon Love
TTITLE9=Softly My Love
TTITLE10=Till The End Of Time
TTITLE11=Don't You Know
EXTD=
EXTT0=
EXTT1=
EXTT2=
EXTT3=
EXTT4=
EXTT5=
EXTT6=
EXTT7=
EXTT8=
EXTT9=
EXTT10=
EXTT11=
PLAYORDER=
